<svg width="57" height="50" viewBox="0 0 57 50" fill="none" xmlns="http://www.w3.org/2000/svg">
<path d="M24.243 19.9831C24.243 19.2995 24.7313 18.7135 25.4149 18.7135H30.786C31.4696 18.7135 31.9579 19.2995 31.9579 19.9831L31.2743 30.9206C31.2743 31.5065 30.6884 31.9948 30.1024 31.9948H26.0985C25.4149 31.9948 24.9266 31.6041 24.9266 30.9206L24.243 19.9831ZM32.2509 37.4635C32.2509 39.8073 30.3954 41.5651 28.1493 41.5651C25.8055 41.5651 24.0477 39.8073 24.0477 37.4635C24.0477 35.2174 25.8055 33.362 28.1493 33.362C30.3954 33.362 32.2509 35.2174 32.2509 37.4635ZM32.1532 2.30727L55.5907 43.0299C57.3485 46.1549 55.1024 49.9635 51.4891 49.9635H4.7118C1.09851 49.9635 -1.14758 46.0573 0.610233 43.0299L24.0477 2.30727C25.8055 -0.817726 30.3954 -0.72007 32.1532 2.30727ZM5.20008 44.4948C4.90711 44.8854 5.20008 45.276 5.68836 45.276H50.5126C51.0009 45.276 51.2938 44.8854 51.0009 44.4948L28.6376 5.62759C28.3446 5.23696 27.8563 5.23696 27.5634 5.62759L5.20008 44.4948Z" fill="#D9D5D5"/>
</svg>
