<svg width="15" height="18" viewBox="0 0 15 18" fill="none" xmlns="http://www.w3.org/2000/svg">
<path d="M4.91406 9.6875H3.58594C3.35352 9.6875 3.1875 9.52148 3.1875 9.28906V7.96094C3.1875 7.76172 3.35352 7.5625 3.58594 7.5625H4.91406C5.11328 7.5625 5.3125 7.76172 5.3125 7.96094V9.28906C5.3125 9.52148 5.11328 9.6875 4.91406 9.6875ZM8.5 9.28906C8.5 9.52148 8.30078 9.6875 8.10156 9.6875H6.77344C6.54102 9.6875 6.375 9.52148 6.375 9.28906V7.96094C6.375 7.76172 6.54102 7.5625 6.77344 7.5625H8.10156C8.30078 7.5625 8.5 7.76172 8.5 7.96094V9.28906ZM11.6875 9.28906C11.6875 9.52148 11.4883 9.6875 11.2891 9.6875H9.96094C9.72852 9.6875 9.5625 9.52148 9.5625 9.28906V7.96094C9.5625 7.76172 9.72852 7.5625 9.96094 7.5625H11.2891C11.4883 7.5625 11.6875 7.76172 11.6875 7.96094V9.28906ZM8.5 12.4766C8.5 12.709 8.30078 12.875 8.10156 12.875H6.77344C6.54102 12.875 6.375 12.709 6.375 12.4766V11.1484C6.375 10.9492 6.54102 10.75 6.77344 10.75H8.10156C8.30078 10.75 8.5 10.9492 8.5 11.1484V12.4766ZM5.3125 12.4766C5.3125 12.709 5.11328 12.875 4.91406 12.875H3.58594C3.35352 12.875 3.1875 12.709 3.1875 12.4766V11.1484C3.1875 10.9492 3.35352 10.75 3.58594 10.75H4.91406C5.11328 10.75 5.3125 10.9492 5.3125 11.1484V12.4766ZM11.6875 12.4766C11.6875 12.709 11.4883 12.875 11.2891 12.875H9.96094C9.72852 12.875 9.5625 12.709 9.5625 12.4766V11.1484C9.5625 10.9492 9.72852 10.75 9.96094 10.75H11.2891C11.4883 10.75 11.6875 10.9492 11.6875 11.1484V12.4766ZM14.875 3.84375V15.5312C14.875 16.4277 14.1445 17.125 13.2812 17.125H1.59375C0.697266 17.125 0 16.4277 0 15.5312V3.84375C0 2.98047 0.697266 2.25 1.59375 2.25H3.1875V0.523438C3.1875 0.324219 3.35352 0.125 3.58594 0.125H4.91406C5.11328 0.125 5.3125 0.324219 5.3125 0.523438V2.25H9.5625V0.523438C9.5625 0.324219 9.72852 0.125 9.96094 0.125H11.2891C11.4883 0.125 11.6875 0.324219 11.6875 0.523438V2.25H13.2812C14.1445 2.25 14.875 2.98047 14.875 3.84375ZM13.2812 15.332V5.4375H1.59375V15.332C1.59375 15.4648 1.66016 15.5312 1.79297 15.5312H13.082C13.1816 15.5312 13.2812 15.4648 13.2812 15.332Z" fill="#6A0025"/>
<path d="M4.91406 9.6875H3.58594C3.35352 9.6875 3.1875 9.52148 3.1875 9.28906V7.96094C3.1875 7.76172 3.35352 7.5625 3.58594 7.5625H4.91406C5.11328 7.5625 5.3125 7.76172 5.3125 7.96094V9.28906C5.3125 9.52148 5.11328 9.6875 4.91406 9.6875ZM8.5 9.28906C8.5 9.52148 8.30078 9.6875 8.10156 9.6875H6.77344C6.54102 9.6875 6.375 9.52148 6.375 9.28906V7.96094C6.375 7.76172 6.54102 7.5625 6.77344 7.5625H8.10156C8.30078 7.5625 8.5 7.76172 8.5 7.96094V9.28906ZM11.6875 9.28906C11.6875 9.52148 11.4883 9.6875 11.2891 9.6875H9.96094C9.72852 9.6875 9.5625 9.52148 9.5625 9.28906V7.96094C9.5625 7.76172 9.72852 7.5625 9.96094 7.5625H11.2891C11.4883 7.5625 11.6875 7.76172 11.6875 7.96094V9.28906ZM8.5 12.4766C8.5 12.709 8.30078 12.875 8.10156 12.875H6.77344C6.54102 12.875 6.375 12.709 6.375 12.4766V11.1484C6.375 10.9492 6.54102 10.75 6.77344 10.75H8.10156C8.30078 10.75 8.5 10.9492 8.5 11.1484V12.4766ZM5.3125 12.4766C5.3125 12.709 5.11328 12.875 4.91406 12.875H3.58594C3.35352 12.875 3.1875 12.709 3.1875 12.4766V11.1484C3.1875 10.9492 3.35352 10.75 3.58594 10.75H4.91406C5.11328 10.75 5.3125 10.9492 5.3125 11.1484V12.4766ZM11.6875 12.4766C11.6875 12.709 11.4883 12.875 11.2891 12.875H9.96094C9.72852 12.875 9.5625 12.709 9.5625 12.4766V11.1484C9.5625 10.9492 9.72852 10.75 9.96094 10.75H11.2891C11.4883 10.75 11.6875 10.9492 11.6875 11.1484V12.4766ZM14.875 3.84375V15.5312C14.875 16.4277 14.1445 17.125 13.2812 17.125H1.59375C0.697266 17.125 0 16.4277 0 15.5312V3.84375C0 2.98047 0.697266 2.25 1.59375 2.25H3.1875V0.523438C3.1875 0.324219 3.35352 0.125 3.58594 0.125H4.91406C5.11328 0.125 5.3125 0.324219 5.3125 0.523438V2.25H9.5625V0.523438C9.5625 0.324219 9.72852 0.125 9.96094 0.125H11.2891C11.4883 0.125 11.6875 0.324219 11.6875 0.523438V2.25H13.2812C14.1445 2.25 14.875 2.98047 14.875 3.84375ZM13.2812 15.332V5.4375H1.59375V15.332C1.59375 15.4648 1.66016 15.5312 1.79297 15.5312H13.082C13.1816 15.5312 13.2812 15.4648 13.2812 15.332Z" fill="#6A0025"/>
<path d="M4.91406 9.6875H3.58594C3.35352 9.6875 3.1875 9.52148 3.1875 9.28906V7.96094C3.1875 7.76172 3.35352 7.5625 3.58594 7.5625H4.91406C5.11328 7.5625 5.3125 7.76172 5.3125 7.96094V9.28906C5.3125 9.52148 5.11328 9.6875 4.91406 9.6875ZM8.5 9.28906C8.5 9.52148 8.30078 9.6875 8.10156 9.6875H6.77344C6.54102 9.6875 6.375 9.52148 6.375 9.28906V7.96094C6.375 7.76172 6.54102 7.5625 6.77344 7.5625H8.10156C8.30078 7.5625 8.5 7.76172 8.5 7.96094V9.28906ZM11.6875 9.28906C11.6875 9.52148 11.4883 9.6875 11.2891 9.6875H9.96094C9.72852 9.6875 9.5625 9.52148 9.5625 9.28906V7.96094C9.5625 7.76172 9.72852 7.5625 9.96094 7.5625H11.2891C11.4883 7.5625 11.6875 7.76172 11.6875 7.96094V9.28906ZM8.5 12.4766C8.5 12.709 8.30078 12.875 8.10156 12.875H6.77344C6.54102 12.875 6.375 12.709 6.375 12.4766V11.1484C6.375 10.9492 6.54102 10.75 6.77344 10.75H8.10156C8.30078 10.75 8.5 10.9492 8.5 11.1484V12.4766ZM5.3125 12.4766C5.3125 12.709 5.11328 12.875 4.91406 12.875H3.58594C3.35352 12.875 3.1875 12.709 3.1875 12.4766V11.1484C3.1875 10.9492 3.35352 10.75 3.58594 10.75H4.91406C5.11328 10.75 5.3125 10.9492 5.3125 11.1484V12.4766ZM11.6875 12.4766C11.6875 12.709 11.4883 12.875 11.2891 12.875H9.96094C9.72852 12.875 9.5625 12.709 9.5625 12.4766V11.1484C9.5625 10.9492 9.72852 10.75 9.96094 10.75H11.2891C11.4883 10.75 11.6875 10.9492 11.6875 11.1484V12.4766ZM14.875 3.84375V15.5312C14.875 16.4277 14.1445 17.125 13.2812 17.125H1.59375C0.697266 17.125 0 16.4277 0 15.5312V3.84375C0 2.98047 0.697266 2.25 1.59375 2.25H3.1875V0.523438C3.1875 0.324219 3.35352 0.125 3.58594 0.125H4.91406C5.11328 0.125 5.3125 0.324219 5.3125 0.523438V2.25H9.5625V0.523438C9.5625 0.324219 9.72852 0.125 9.96094 0.125H11.2891C11.4883 0.125 11.6875 0.324219 11.6875 0.523438V2.25H13.2812C14.1445 2.25 14.875 2.98047 14.875 3.84375ZM13.2812 15.332V5.4375H1.59375V15.332C1.59375 15.4648 1.66016 15.5312 1.79297 15.5312H13.082C13.1816 15.5312 13.2812 15.4648 13.2812 15.332Z" fill="#00193F"/>
</svg>
