<svg width="20" height="13" viewBox="0 0 20 13" fill="none" xmlns="http://www.w3.org/2000/svg">
<path d="M9.5625 2.90625C11.6211 2.90625 13.2812 4.59961 13.2812 6.625C13.2812 8.68359 11.6211 10.3438 9.5625 10.3438C7.50391 10.3438 5.84375 8.68359 5.84375 6.625C5.84375 6.32617 5.91016 5.89453 6.00977 5.5957C6.20898 5.72852 6.64062 5.82812 6.90625 5.82812C7.90234 5.82812 8.76562 4.99805 8.76562 3.96875C8.73242 3.73633 8.63281 3.30469 8.5 3.07227C8.79883 3.00586 9.26367 2.93945 9.5625 2.90625ZM18.9922 6.16016C19.0586 6.29297 19.0918 6.49219 19.0918 6.625C19.0918 6.79102 19.0586 6.99023 18.9922 7.12305C17.1992 10.6426 13.6133 13 9.5625 13C5.47852 13 1.89258 10.6426 0.0996094 7.12305C0.0332031 6.99023 0 6.79102 0 6.6582C0 6.49219 0.0332031 6.29297 0.0996094 6.16016C1.89258 2.64062 5.47852 0.25 9.5625 0.25C13.6133 0.25 17.1992 2.64062 18.9922 6.16016ZM9.5625 11.4062C12.8164 11.4062 15.8379 9.58008 17.4316 6.625C15.8379 3.66992 12.8164 1.84375 9.5625 1.84375C6.27539 1.84375 3.25391 3.66992 1.66016 6.625C3.25391 9.58008 6.27539 11.4062 9.5625 11.4062Z" fill="#6A0025"/>
<path d="M9.5625 2.90625C11.6211 2.90625 13.2812 4.59961 13.2812 6.625C13.2812 8.68359 11.6211 10.3438 9.5625 10.3438C7.50391 10.3438 5.84375 8.68359 5.84375 6.625C5.84375 6.32617 5.91016 5.89453 6.00977 5.5957C6.20898 5.72852 6.64062 5.82812 6.90625 5.82812C7.90234 5.82812 8.76562 4.99805 8.76562 3.96875C8.73242 3.73633 8.63281 3.30469 8.5 3.07227C8.79883 3.00586 9.26367 2.93945 9.5625 2.90625ZM18.9922 6.16016C19.0586 6.29297 19.0918 6.49219 19.0918 6.625C19.0918 6.79102 19.0586 6.99023 18.9922 7.12305C17.1992 10.6426 13.6133 13 9.5625 13C5.47852 13 1.89258 10.6426 0.0996094 7.12305C0.0332031 6.99023 0 6.79102 0 6.6582C0 6.49219 0.0332031 6.29297 0.0996094 6.16016C1.89258 2.64062 5.47852 0.25 9.5625 0.25C13.6133 0.25 17.1992 2.64062 18.9922 6.16016ZM9.5625 11.4062C12.8164 11.4062 15.8379 9.58008 17.4316 6.625C15.8379 3.66992 12.8164 1.84375 9.5625 1.84375C6.27539 1.84375 3.25391 3.66992 1.66016 6.625C3.25391 9.58008 6.27539 11.4062 9.5625 11.4062Z" fill="#6A0025"/>
<path d="M9.5625 2.90625C11.6211 2.90625 13.2812 4.59961 13.2812 6.625C13.2812 8.68359 11.6211 10.3438 9.5625 10.3438C7.50391 10.3438 5.84375 8.68359 5.84375 6.625C5.84375 6.32617 5.91016 5.89453 6.00977 5.5957C6.20898 5.72852 6.64062 5.82812 6.90625 5.82812C7.90234 5.82812 8.76562 4.99805 8.76562 3.96875C8.73242 3.73633 8.63281 3.30469 8.5 3.07227C8.79883 3.00586 9.26367 2.93945 9.5625 2.90625ZM18.9922 6.16016C19.0586 6.29297 19.0918 6.49219 19.0918 6.625C19.0918 6.79102 19.0586 6.99023 18.9922 7.12305C17.1992 10.6426 13.6133 13 9.5625 13C5.47852 13 1.89258 10.6426 0.0996094 7.12305C0.0332031 6.99023 0 6.79102 0 6.6582C0 6.49219 0.0332031 6.29297 0.0996094 6.16016C1.89258 2.64062 5.47852 0.25 9.5625 0.25C13.6133 0.25 17.1992 2.64062 18.9922 6.16016ZM9.5625 11.4062C12.8164 11.4062 15.8379 9.58008 17.4316 6.625C15.8379 3.66992 12.8164 1.84375 9.5625 1.84375C6.27539 1.84375 3.25391 3.66992 1.66016 6.625C3.25391 9.58008 6.27539 11.4062 9.5625 11.4062Z" fill="#00193F"/>
</svg>
