<svg width="17" height="16" viewBox="0 0 17 16" fill="none" xmlns="http://www.w3.org/2000/svg">
<path d="M16.4061 0.781253C16.7498 0.875003 16.9998 1.15625 16.9998 1.5C16.9998 9.53125 10.4998 16 2.49981 16C2.12481 16 1.84356 15.7813 1.74981 15.4375L0.999814 12.1875C0.937314 11.8438 1.09356 11.4688 1.43731 11.3125L4.93731 9.8125C5.24981 9.6875 5.59356 9.78125 5.81231 10.0313L7.37481 11.9375C9.81231 10.7813 11.7811 8.78125 12.9061 6.40625L10.9998 4.84375C10.7498 4.625 10.6561 4.28125 10.7811 3.96875L12.2811 0.468753C12.4373 0.125003 12.8123 -0.0624969 13.1561 0.0312531L16.4061 0.781253Z" fill="white"/>
</svg>
