<svg width="813" height="261" xmlns="http://www.w3.org/2000/svg" xmlns:xlink="http://www.w3.org/1999/xlink" xml:space="preserve" overflow="hidden"><g transform="translate(-441 -24)"><g><g><g><g><path d="M296.422 83.1552C296.422 108.483 275.802 129.103 250.474 129.103M296.422 83.1552C296.422 57.8276 317.043 37.2069 342.371 37.2069L522.129 37.2069" stroke="#404040" stroke-width="4.48276" stroke-linecap="butt" stroke-linejoin="miter" stroke-miterlimit="10" stroke-opacity="1" fill="none" fill-rule="nonzero" transform="matrix(1.00243 0 0 1 406.285 25)"/><path d="M414.543 37.2069C414.543 50.2046 404.006 60.7414 391.009 60.7414 378.011 60.7414 367.474 50.2046 367.474 37.2069 367.474 24.2092 378.011 13.6724 391.009 13.6724 404.006 13.6724 414.543 24.2092 414.543 37.2069Z" stroke="#404040" stroke-width="4.48276" stroke-linecap="butt" stroke-linejoin="miter" stroke-miterlimit="10" stroke-opacity="1" fill="#B18BE8" fill-rule="nonzero" fill-opacity="1" transform="matrix(1.00243 0 0 1 406.285 25)"/><path d="M522.129 37.2069C522.129 50.2046 511.593 60.7414 498.595 60.7414 485.597 60.7414 475.06 50.2046 475.06 37.2069 475.06 24.2092 485.597 13.6724 498.595 13.6724 511.593 13.6724 522.129 24.2092 522.129 37.2069Z" stroke="#404040" stroke-width="4.48276" stroke-linecap="butt" stroke-linejoin="miter" stroke-miterlimit="10" stroke-opacity="1" fill="#B18BE8" fill-rule="nonzero" fill-opacity="1" transform="matrix(1.00243 0 0 1 406.285 25)"/><path d="M611 175.052C611 149.724 590.379 129.103 565.052 129.103M611 175.052C611 200.379 631.621 221 656.948 221L836.707 221" stroke="#404040" stroke-width="4.48276" stroke-linecap="butt" stroke-linejoin="miter" stroke-miterlimit="10" stroke-opacity="1" fill="none" fill-rule="nonzero" transform="matrix(1.00243 0 0 1 406.285 25)"/><path d="M729.009 221C729.009 233.998 718.472 244.534 705.474 244.534 692.476 244.534 681.94 233.998 681.94 221 681.94 208.002 692.476 197.466 705.474 197.466 718.472 197.466 729.009 208.002 729.009 221Z" stroke="#404040" stroke-width="4.48276" stroke-linecap="butt" stroke-linejoin="miter" stroke-miterlimit="10" stroke-opacity="1" fill="#4ED1A1" fill-rule="nonzero" fill-opacity="1" transform="matrix(1.00243 0 0 1 406.285 25)"/><path d="M836.595 221C836.595 233.998 826.058 244.534 813.06 244.534 800.063 244.534 789.526 233.998 789.526 221 789.526 208.002 800.063 197.466 813.06 197.466 826.058 197.466 836.595 208.002 836.595 221Z" stroke="#404040" stroke-width="4.48276" stroke-linecap="butt" stroke-linejoin="miter" stroke-miterlimit="10" stroke-opacity="1" fill="#4ED1A1" fill-rule="nonzero" fill-opacity="1" transform="matrix(1.00243 0 0 1 406.285 25)"/><path d="M59.9569 129.103 681.94 129.103" stroke="#404040" stroke-width="4.48276" stroke-linecap="butt" stroke-linejoin="miter" stroke-miterlimit="10" stroke-opacity="1" fill="none" fill-rule="nonzero" transform="matrix(1.00243 0 0 1 406.285 25)"/><path d="M107.026 129.103C107.026 142.101 96.4891 152.638 83.4914 152.638 70.4936 152.638 59.9569 142.101 59.9569 129.103 59.9569 116.106 70.4936 105.569 83.4914 105.569 96.4891 105.569 107.026 116.106 107.026 129.103Z" stroke="#404040" stroke-width="4.48276" stroke-linecap="butt" stroke-linejoin="miter" stroke-miterlimit="10" stroke-opacity="1" fill="#B3E3FF" fill-rule="nonzero" fill-opacity="1" transform="matrix(1.00243 0 0 1 406.285 25)"/><path d="M214.612 129.103C214.612 142.101 204.075 152.638 191.078 152.638 178.08 152.638 167.543 142.101 167.543 129.103 167.543 116.106 178.08 105.569 191.078 105.569 204.075 105.569 214.612 116.106 214.612 129.103Z" stroke="#404040" stroke-width="4.48276" stroke-linecap="butt" stroke-linejoin="miter" stroke-miterlimit="10" stroke-opacity="1" fill="#B3E3FF" fill-rule="nonzero" fill-opacity="1" transform="matrix(1.00243 0 0 1 406.285 25)"/><path d="M413.422 129.103C413.422 142.101 402.886 152.638 389.888 152.638 376.89 152.638 366.353 142.101 366.353 129.103 366.353 116.106 376.89 105.569 389.888 105.569 402.886 105.569 413.422 116.106 413.422 129.103Z" stroke="#404040" stroke-width="4.48276" stroke-linecap="butt" stroke-linejoin="miter" stroke-miterlimit="10" stroke-opacity="1" fill="#B3E3FF" fill-rule="nonzero" fill-opacity="1" transform="matrix(1.00243 0 0 1 406.285 25)"/><path d="M522.129 129.103C522.129 142.101 511.593 152.638 498.595 152.638 485.597 152.638 475.06 142.101 475.06 129.103 475.06 116.106 485.597 105.569 498.595 105.569 511.593 105.569 522.129 116.106 522.129 129.103Z" stroke="#404040" stroke-width="4.48276" stroke-linecap="butt" stroke-linejoin="miter" stroke-miterlimit="10" stroke-opacity="1" fill="#B3E3FF" fill-rule="nonzero" fill-opacity="1" transform="matrix(1.00243 0 0 1 406.285 25)"/><path d="M729.009 129.103C729.009 142.101 718.472 152.638 705.474 152.638 692.476 152.638 681.94 142.101 681.94 129.103 681.94 116.106 692.476 105.569 705.474 105.569 718.472 105.569 729.009 116.106 729.009 129.103Z" stroke="#404040" stroke-width="4.48276" stroke-linecap="butt" stroke-linejoin="miter" stroke-miterlimit="10" stroke-opacity="1" fill="#B3E3FF" fill-rule="nonzero" fill-opacity="1" transform="matrix(1.00243 0 0 1 406.285 25)"/></g></g></g></g></g></svg>