<svg width="760" height="300" xmlns="http://www.w3.org/2000/svg" xmlns:xlink="http://www.w3.org/1999/xlink" xml:space="preserve" overflow="hidden"><g transform="translate(-520 -20)"><g><g><g><g><path d="M460.428 141.364 628.547 141.364 628.547 244.113 460.428 244.113Z" stroke="#404040" stroke-width="3.795" stroke-linecap="round" stroke-linejoin="round" stroke-miterlimit="10" stroke-opacity="1" fill="#4ED1A1" fill-rule="nonzero" fill-opacity="1" transform="matrix(1 0 0 1.00048 521 20)"/><path d="M476.367 157.208 612.798 157.208 612.798 228.174 476.367 228.174Z" stroke="#404040" stroke-width="3.795" stroke-linecap="butt" stroke-linejoin="miter" stroke-miterlimit="10" stroke-opacity="1" fill="#B3E3FF" fill-rule="nonzero" fill-opacity="1" transform="matrix(1 0 0 1.00048 521 20)"/><path d="M493.635 192.881 483.009 192.881" stroke="#404040" stroke-width="3.795" stroke-linecap="round" stroke-linejoin="round" stroke-miterlimit="10" stroke-opacity="1" fill="none" fill-rule="nonzero" transform="matrix(1 0 0 1.00048 521 20)"/><path d="M636.896 291.171 452.079 291.171 460.428 255.214 628.547 255.214ZM493.635 172.008 595.435 172.008 595.435 213.753 493.635 213.753Z" stroke="#404040" stroke-width="3.795" stroke-linecap="round" stroke-linejoin="round" stroke-miterlimit="10" stroke-opacity="1" fill="#4ED1A1" fill-rule="nonzero" fill-opacity="1" transform="matrix(1 0 0 1.00048 521 20)"/><path d="M552.837 192.976C552.837 197.587 549.099 201.325 544.488 201.325 539.877 201.325 536.139 197.587 536.139 192.976 536.139 188.365 539.877 184.627 544.488 184.627 549.099 184.627 552.837 188.365 552.837 192.976Z" stroke="#404040" stroke-width="3.795" stroke-linecap="round" stroke-linejoin="round" stroke-miterlimit="10" stroke-opacity="1" fill="#FFFFFF" fill-rule="nonzero" fill-opacity="1" transform="matrix(1 0 0 1.00048 521 20)"/><path d="M523.615 192.976C523.615 197.587 519.877 201.325 515.266 201.325 510.655 201.325 506.917 197.587 506.917 192.976 506.917 188.365 510.655 184.627 515.266 184.627 519.877 184.627 523.615 188.365 523.615 192.976Z" stroke="#404040" stroke-width="3.795" stroke-linecap="round" stroke-linejoin="round" stroke-miterlimit="10" stroke-opacity="1" fill="#FFFFFF" fill-rule="nonzero" fill-opacity="1" transform="matrix(1 0 0 1.00048 521 20)"/><path d="M606.062 192.881 595.435 192.881M300.469 192.881 348.286 192.881C357.963 192.881 365.838 185.006 365.838 175.329L365.838 92.7878M128.84 192.881 74.9512 192.881C65.274 192.881 57.3994 185.006 57.3994 175.329L57.3994 126.184M458.246 192.881 410.429 192.881C400.752 192.881 392.877 185.006 392.877 175.329L392.877 92.7878M631.203 192.881 685.092 192.881C694.77 192.881 702.644 185.006 702.644 175.329L702.644 126.184" stroke="#404040" stroke-width="3.795" stroke-linecap="round" stroke-linejoin="round" stroke-miterlimit="10" stroke-opacity="1" fill="none" fill-rule="nonzero" transform="matrix(1 0 0 1.00048 521 20)"/><path d="M582.058 192.976C582.058 197.587 578.32 201.325 573.709 201.325 569.098 201.325 565.36 197.587 565.36 192.976 565.36 188.365 569.098 184.627 573.709 184.627 578.32 184.627 582.058 188.365 582.058 192.976Z" stroke="#404040" stroke-width="3.795" stroke-linecap="round" stroke-linejoin="round" stroke-miterlimit="10" stroke-opacity="1" fill="#FFFFFF" fill-rule="nonzero" fill-opacity="1" transform="matrix(1 0 0 1.00048 521 20)"/><path d="M30.8344 102.845C30.8344 97.6264 42.6938 93.357 57.3994 93.357 72.105 93.357 83.9644 97.5315 83.9644 102.845M30.8344 102.845 30.8344 114.609C30.8344 115.842 31.5934 117.076 32.8267 118.214 36.8115 121.63 46.299 124.097 57.3994 124.097 68.4997 124.097 77.9873 121.63 81.972 118.214 83.2054 117.076 83.9644 115.937 83.9644 114.609L83.9644 102.845" stroke="#404040" stroke-width="3.795" stroke-linecap="butt" stroke-linejoin="miter" stroke-miterlimit="10" stroke-opacity="1" fill="#B3E3FF" fill-rule="nonzero" fill-opacity="1" transform="matrix(1 0 0 1.00048 521 20)"/><path d="M84.0592 102.845C84.0592 108.063 72.1999 112.332 57.4943 112.332 42.7886 112.332 30.9292 108.158 30.9292 102.845 30.9292 97.6264 42.7886 93.357 57.4943 93.357 72.1999 93.357 84.0592 97.6264 84.0592 102.845Z" stroke="#59AFE1" stroke-width="3.795" stroke-linecap="butt" stroke-linejoin="miter" stroke-miterlimit="10" stroke-opacity="1" fill="#FFFFFF" fill-rule="nonzero" fill-opacity="1" transform="matrix(1 0 0 1.00048 521 20)"/><path d="M30.8344 91.08C30.8344 85.8619 42.6938 81.5925 57.3994 81.5925 72.105 81.5925 83.9644 85.767 83.9644 91.08M30.8344 91.08 30.8344 102.845C30.8344 104.078 31.5934 105.311 32.8267 106.45 36.8115 109.865 46.299 112.332 57.3994 112.332 68.4997 112.332 77.9873 109.865 81.972 106.45 83.2054 105.311 83.9644 104.173 83.9644 102.845L83.9644 91.08" stroke="#404040" stroke-width="3.795" stroke-linecap="butt" stroke-linejoin="miter" stroke-miterlimit="10" stroke-opacity="1" fill="#B3E3FF" fill-rule="nonzero" fill-opacity="1" transform="matrix(1 0 0 1.00048 521 20)"/><path d="M84.0592 91.08C84.0592 96.2981 72.1999 100.568 57.4943 100.568 42.7886 100.568 30.9292 96.393 30.9292 91.08 30.9292 85.8619 42.7886 81.5925 57.4943 81.5925 72.1999 81.5925 84.0592 85.8619 84.0592 91.08Z" stroke="#59AFE1" stroke-width="3.795" stroke-linecap="butt" stroke-linejoin="miter" stroke-miterlimit="10" stroke-opacity="1" fill="#FFFFFF" fill-rule="nonzero" fill-opacity="1" transform="matrix(1 0 0 1.00048 521 20)"/><path d="M30.8344 79.3155C30.8344 74.0974 42.6938 69.828 57.3994 69.828 72.105 69.828 83.9644 74.0025 83.9644 79.3155M30.8344 79.3155 30.8344 91.08C30.8344 92.3134 31.5934 93.5468 32.8267 94.6853 36.8115 98.1008 46.299 100.568 57.3994 100.568 68.4997 100.568 77.9873 98.1008 81.972 94.6853 83.2054 93.5468 83.9644 92.4083 83.9644 91.08L83.9644 79.3155" stroke="#404040" stroke-width="3.795" stroke-linecap="butt" stroke-linejoin="miter" stroke-miterlimit="10" stroke-opacity="1" fill="#B3E3FF" fill-rule="nonzero" fill-opacity="1" transform="matrix(1 0 0 1.00048 521 20)"/><path d="M84.0592 79.3155C84.0592 84.5336 72.1999 88.803 57.4943 88.803 42.7886 88.803 30.9292 84.6285 30.9292 79.3155 30.9292 74.0974 42.7886 69.828 57.4943 69.828 72.1999 69.828 84.0592 74.0974 84.0592 79.3155Z" stroke="#404040" stroke-width="3.795" stroke-linecap="butt" stroke-linejoin="miter" stroke-miterlimit="10" stroke-opacity="1" fill="#FFFFFF" fill-rule="nonzero" fill-opacity="1" transform="matrix(1 0 0 1.00048 521 20)"/><path d="M674.941 102.845C674.941 97.6264 686.8 93.357 701.506 93.357 716.211 93.357 728.071 97.5315 728.071 102.845M674.941 102.845 674.941 114.609C674.941 115.842 675.7 117.076 676.933 118.214 680.918 121.63 690.405 124.097 701.506 124.097 712.606 124.097 722.094 121.63 726.078 118.214 727.312 117.076 728.071 115.937 728.071 114.609L728.071 102.845" stroke="#404040" stroke-width="3.795" stroke-linecap="butt" stroke-linejoin="miter" stroke-miterlimit="10" stroke-opacity="1" fill="#B3E3FF" fill-rule="nonzero" fill-opacity="1" transform="matrix(1 0 0 1.00048 521 20)"/><path d="M728.166 102.845C728.166 108.063 716.306 112.332 701.601 112.332 686.895 112.332 675.036 108.158 675.036 102.845 675.036 97.6264 686.895 93.357 701.601 93.357 716.306 93.357 728.166 97.6264 728.166 102.845Z" stroke="#59AFE1" stroke-width="3.795" stroke-linecap="butt" stroke-linejoin="miter" stroke-miterlimit="10" stroke-opacity="1" fill="#FFFFFF" fill-rule="nonzero" fill-opacity="1" transform="matrix(1 0 0 1.00048 521 20)"/><path d="M674.941 91.08C674.941 85.8619 686.8 81.5925 701.506 81.5925 716.211 81.5925 728.071 85.767 728.071 91.08M674.941 91.08 674.941 102.845C674.941 104.078 675.7 105.311 676.933 106.45 680.918 109.865 690.405 112.332 701.506 112.332 712.606 112.332 722.094 109.865 726.078 106.45 727.312 105.311 728.071 104.173 728.071 102.845L728.071 91.08" stroke="#404040" stroke-width="3.795" stroke-linecap="butt" stroke-linejoin="miter" stroke-miterlimit="10" stroke-opacity="1" fill="#B3E3FF" fill-rule="nonzero" fill-opacity="1" transform="matrix(1 0 0 1.00048 521 20)"/><path d="M728.166 91.08C728.166 96.2981 716.306 100.568 701.601 100.568 686.895 100.568 675.036 96.393 675.036 91.08 675.036 85.8619 686.895 81.5925 701.601 81.5925 716.306 81.5925 728.166 85.8619 728.166 91.08Z" stroke="#59AFE1" stroke-width="3.795" stroke-linecap="butt" stroke-linejoin="miter" stroke-miterlimit="10" stroke-opacity="1" fill="#FFFFFF" fill-rule="nonzero" fill-opacity="1" transform="matrix(1 0 0 1.00048 521 20)"/><path d="M674.941 79.3155C674.941 74.0974 686.8 69.828 701.506 69.828 716.211 69.828 728.071 74.0025 728.071 79.3155M674.941 79.3155 674.941 91.08C674.941 92.3134 675.7 93.5468 676.933 94.6853 680.918 98.1008 690.405 100.568 701.506 100.568 712.606 100.568 722.094 98.1008 726.078 94.6853 727.312 93.5468 728.071 92.4083 728.071 91.08L728.071 79.3155" stroke="#404040" stroke-width="3.795" stroke-linecap="butt" stroke-linejoin="miter" stroke-miterlimit="10" stroke-opacity="1" fill="#B3E3FF" fill-rule="nonzero" fill-opacity="1" transform="matrix(1 0 0 1.00048 521 20)"/><path d="M728.166 79.3155C728.166 84.5336 716.306 88.803 701.601 88.803 686.895 88.803 675.036 84.6285 675.036 79.3155 675.036 74.0974 686.895 69.828 701.601 69.828 716.306 69.828 728.166 74.0974 728.166 79.3155Z" stroke="#404040" stroke-width="3.795" stroke-linecap="butt" stroke-linejoin="miter" stroke-miterlimit="10" stroke-opacity="1" fill="#FFFFFF" fill-rule="nonzero" fill-opacity="1" transform="matrix(1 0 0 1.00048 521 20)"/><path d="M130.548 141.364 298.667 141.364 298.667 244.113 130.548 244.113Z" stroke="#404040" stroke-width="3.795" stroke-linecap="round" stroke-linejoin="round" stroke-miterlimit="10" stroke-opacity="1" fill="#B18BE8" fill-rule="nonzero" fill-opacity="1" transform="matrix(1 0 0 1.00048 521 20)"/><path d="M146.392 157.208 282.822 157.208 282.822 228.174 146.392 228.174Z" stroke="#404040" stroke-width="3.795" stroke-linecap="butt" stroke-linejoin="miter" stroke-miterlimit="10" stroke-opacity="1" fill="#B3E3FF" fill-rule="nonzero" fill-opacity="1" transform="matrix(1 0 0 1.00048 521 20)"/><path d="M307.016 291.171 122.199 291.171 130.548 255.214 298.667 255.214ZM193.735 171.819 235.48 171.819 235.48 213.564 193.735 213.564Z" stroke="#404040" stroke-width="3.795" stroke-linecap="round" stroke-linejoin="round" stroke-miterlimit="10" stroke-opacity="1" fill="#B18BE8" fill-rule="nonzero" fill-opacity="1" transform="matrix(1 0 0 1.00048 521 20)"/><path d="M222.956 192.881C222.956 197.492 219.218 201.23 214.607 201.23 209.996 201.23 206.258 197.492 206.258 192.881 206.258 188.27 209.996 184.532 214.607 184.532 219.218 184.532 222.956 188.27 222.956 192.881Z" stroke="#404040" stroke-width="3.795" stroke-linecap="round" stroke-linejoin="round" stroke-miterlimit="10" stroke-opacity="1" fill="#FFFFFF" fill-rule="nonzero" fill-opacity="1" transform="matrix(1 0 0 1.00048 521 20)"/><path d="M193.735 192.691 153.033 192.691M276.181 192.691 235.48 192.691" stroke="#404040" stroke-width="3.795" stroke-linecap="round" stroke-linejoin="round" stroke-miterlimit="10" stroke-opacity="1" fill="none" fill-rule="nonzero" transform="matrix(1 0 0 1.00048 521 20)"/><path d="M420.771 55.9762C420.771 78.7694 402.293 97.2469 379.5 97.2469 356.707 97.2469 338.229 78.7694 338.229 55.9762 338.229 33.1831 356.707 14.7056 379.5 14.7056 402.293 14.7056 420.771 33.1831 420.771 55.9762Z" stroke="#404040" stroke-width="3.795" stroke-linecap="butt" stroke-linejoin="miter" stroke-miterlimit="10" stroke-opacity="1" fill="#FFFFFF" fill-rule="nonzero" fill-opacity="1" transform="matrix(1 0 0 1.00048 521 20)"/><path d="M379.5 61.9534 379.5 40.8911M371.531 45.8246 379.5 37.8551 387.47 45.8246M370.677 52.6556 361.474 52.6556C360.051 52.6556 358.817 53.7941 358.817 55.3121L358.817 66.8869C358.817 68.31 359.956 69.5434 361.474 69.5434L397.621 69.5434C399.044 69.5434 400.278 68.4049 400.278 66.8869L400.278 55.3121C400.278 53.889 399.139 52.6556 397.621 52.6556L388.418 52.6556" stroke="#404040" stroke-width="3.795" stroke-linecap="round" stroke-linejoin="round" stroke-miterlimit="10" stroke-opacity="1" fill="none" fill-rule="nonzero" transform="matrix(1 0 0 1.00048 521 20)"/></g></g></g></g></g></svg>