<svg width="290" height="239" xmlns="http://www.w3.org/2000/svg" xmlns:xlink="http://www.w3.org/1999/xlink" xml:space="preserve" overflow="hidden"><g transform="translate(-938 -294)"><g><g><g><g><path d="M145.55 130.511 208.771 130.511C215.612 130.511 221.155 124.968 221.155 118.126L221.155 95.1853" stroke="#404040" stroke-width="2.35899" stroke-linecap="butt" stroke-linejoin="miter" stroke-miterlimit="10" stroke-opacity="1" fill="none" fill-rule="nonzero" transform="matrix(1 0 0 1.0014 849.155 295)"/><path d="M145.55 130.511C138.709 130.511 133.165 136.055 133.165 142.896L133.165 164.658M328.607 205.645C330.436 209.655 334.446 212.25 338.81 212.25 343.233 212.25 347.243 209.655 349.072 205.586" stroke="#404040" stroke-width="2.35899" stroke-linecap="round" stroke-linejoin="round" stroke-miterlimit="10" stroke-opacity="1" fill="none" fill-rule="nonzero" transform="matrix(1 0 0 1.0014 849.155 295)"/><path d="M338.574 231.771C338.574 231.771 354.733 232.243 360.808 228.704 370.833 222.866 360.631 210.894 352.728 208.889 350.31 213.43 344.884 216.555 338.574 216.555L338.751 216.555C332.441 216.555 327.074 213.371 324.597 208.889 316.695 210.894 306.492 222.925 316.518 228.704 322.592 232.243 338.751 231.771 338.751 231.771" stroke="#404040" stroke-width="2.35899" stroke-linecap="butt" stroke-linejoin="miter" stroke-miterlimit="10" stroke-opacity="1" fill="#FFFFFF" fill-rule="nonzero" fill-opacity="1" transform="matrix(1 0 0 1.0014 849.155 295)"/><path d="M352.374 190.665C352.374 198.157 346.301 204.23 338.81 204.23 331.319 204.23 325.246 198.157 325.246 190.665 325.246 183.174 331.319 177.101 338.81 177.101 346.301 177.101 352.374 183.174 352.374 190.665Z" stroke="#404040" stroke-width="2.35899" stroke-linecap="butt" stroke-linejoin="miter" stroke-miterlimit="10" stroke-opacity="1" fill="#FFFFFF" fill-rule="nonzero" fill-opacity="1" transform="matrix(1 0 0 1.0014 849.155 295)"/><path d="M329.61 180.64C331.143 192.435 349.72 184.886 352.02 193.496 350.723 199.63 345.297 204.23 338.751 204.23 331.261 204.23 325.187 198.155 325.187 190.665 325.187 189.899 325.246 189.132 325.364 188.365 326.072 188.424 330.141 190.665 329.61 180.64Z" stroke="#404040" stroke-width="2.35899" stroke-linecap="butt" stroke-linejoin="miter" stroke-miterlimit="10" stroke-opacity="1" fill="#FFFFFF" fill-rule="nonzero" fill-opacity="1" transform="matrix(1 0 0 1.0014 849.155 295)"/><path d="M346.182 202.637 346.182 208.83M331.674 208.889 331.674 202.814" stroke="#404040" stroke-width="2.35899" stroke-linecap="round" stroke-linejoin="round" stroke-miterlimit="10" stroke-opacity="1" fill="none" fill-rule="nonzero" transform="matrix(1 0 0 1.0014 849.155 295)"/><path d="M198.922 67.5851C198.922 60.2722 215.553 54.3747 236.076 54.3747 256.599 54.3747 273.23 60.2722 273.23 67.5851M198.922 67.5851 198.922 84.0391C198.922 85.8083 199.924 87.5186 201.694 89.0519 207.237 93.8878 220.566 97.2494 236.076 97.2494 251.645 97.2494 264.915 93.8289 270.458 89.0519 272.228 87.5186 273.23 85.8083 273.23 84.0391L273.23 67.5851" stroke="#404040" stroke-width="2.35899" stroke-linecap="butt" stroke-linejoin="miter" stroke-miterlimit="10" stroke-opacity="1" fill="#B3E3FF" fill-rule="nonzero" fill-opacity="1" transform="matrix(1 0 0 1.0014 849.155 295)"/><path d="M273.23 67.5851C273.23 74.898 256.599 80.7954 236.076 80.7954 215.553 80.7954 198.922 74.898 198.922 67.5851 198.922 60.2722 215.553 54.3747 236.076 54.3747 256.599 54.3747 273.23 60.2722 273.23 67.5851Z" stroke="#404040" stroke-width="2.35899" stroke-linecap="butt" stroke-linejoin="miter" stroke-miterlimit="10" stroke-opacity="1" fill="#FFFFFF" fill-rule="nonzero" fill-opacity="1" transform="matrix(1 0 0 1.0014 849.155 295)"/><path d="M198.922 51.1311C198.922 43.8183 215.553 37.9208 236.076 37.9208 256.599 37.9208 273.23 43.8183 273.23 51.1311M198.922 51.1311 198.922 67.5851C198.922 69.3543 199.924 71.0646 201.694 72.598 207.237 77.4339 220.566 80.7954 236.076 80.7954 251.645 80.7954 264.915 77.3749 270.458 72.598 272.228 71.0646 273.23 69.3543 273.23 67.5851L273.23 51.1311" stroke="#404040" stroke-width="2.35899" stroke-linecap="butt" stroke-linejoin="miter" stroke-miterlimit="10" stroke-opacity="1" fill="#B3E3FF" fill-rule="nonzero" fill-opacity="1" transform="matrix(1 0 0 1.0014 849.155 295)"/><path d="M273.23 51.1311C273.23 58.444 256.599 64.3415 236.076 64.3415 215.553 64.3415 198.922 58.444 198.922 51.1311 198.922 43.8183 215.553 37.9208 236.076 37.9208 256.599 37.9208 273.23 43.8183 273.23 51.1311Z" stroke="#404040" stroke-width="2.35899" stroke-linecap="butt" stroke-linejoin="miter" stroke-miterlimit="10" stroke-opacity="1" fill="#FFFFFF" fill-rule="nonzero" fill-opacity="1" transform="matrix(1 0 0 1.0014 849.155 295)"/><path d="M198.922 34.6772C198.922 27.3643 215.553 21.4668 236.076 21.4668 256.599 21.4668 273.23 27.3643 273.23 34.6772M198.922 34.6772 198.922 51.1311C198.922 52.9004 199.924 54.6106 201.694 56.144 207.237 60.9799 220.566 64.3415 236.076 64.3415 251.645 64.3415 264.915 60.9209 270.458 56.144 272.228 54.6106 273.23 52.9004 273.23 51.1311L273.23 34.6772" stroke="#404040" stroke-width="2.35899" stroke-linecap="butt" stroke-linejoin="miter" stroke-miterlimit="10" stroke-opacity="1" fill="#B3E3FF" fill-rule="nonzero" fill-opacity="1" transform="matrix(1 0 0 1.0014 849.155 295)"/><path d="M273.23 34.6772C273.23 41.99 256.599 47.8875 236.076 47.8875 215.553 47.8875 198.922 41.99 198.922 34.6772 198.922 27.3643 215.553 21.4668 236.076 21.4668 256.599 21.4668 273.23 27.3643 273.23 34.6772Z" stroke="#404040" stroke-width="2.35899" stroke-linecap="butt" stroke-linejoin="miter" stroke-miterlimit="10" stroke-opacity="1" fill="#FFFFFF" fill-rule="nonzero" fill-opacity="1" transform="matrix(1 0 0 1.0014 849.155 295)"/><path d="M198.922 18.2232C198.922 10.9103 215.553 5.01286 236.076 5.01286 256.599 5.01286 273.23 10.9103 273.23 18.2232M198.922 18.2232 198.922 34.6772C198.922 36.4464 199.924 38.1567 201.694 39.69 207.237 44.526 220.566 47.8875 236.076 47.8875 251.645 47.8875 264.915 44.467 270.458 39.69 272.228 38.1567 273.23 36.4464 273.23 34.6772L273.23 18.2232" stroke="#404040" stroke-width="2.35899" stroke-linecap="butt" stroke-linejoin="miter" stroke-miterlimit="10" stroke-opacity="1" fill="#B3E3FF" fill-rule="nonzero" fill-opacity="1" transform="matrix(1 0 0 1.0014 849.155 295)"/><path d="M273.23 18.2232C273.23 25.5361 256.599 31.4336 236.076 31.4336 215.553 31.4336 198.922 25.5361 198.922 18.2232 198.922 10.9103 215.553 5.01286 236.076 5.01286 256.599 5.01286 273.23 10.9103 273.23 18.2232Z" stroke="#404040" stroke-width="2.35899" stroke-linecap="butt" stroke-linejoin="miter" stroke-miterlimit="10" stroke-opacity="1" fill="#FFFFFF" fill-rule="nonzero" fill-opacity="1" transform="matrix(1 0 0 1.0014 849.155 295)"/><path d="M123.08 204.466C124.909 208.476 128.919 211.071 133.283 211.071 137.706 211.071 141.716 208.476 143.545 204.407" stroke="#404040" stroke-width="2.35899" stroke-linecap="round" stroke-linejoin="round" stroke-miterlimit="10" stroke-opacity="1" fill="none" fill-rule="nonzero" transform="matrix(1 0 0 1.0014 849.155 295)"/><path d="M133.047 230.532C133.047 230.532 149.206 231.004 155.281 227.466 165.306 221.627 155.104 209.655 147.201 207.65 144.783 212.191 139.357 215.317 133.047 215.317L133.224 215.317C126.914 215.317 121.547 212.132 119.07 207.65 111.167 209.655 100.965 221.686 110.991 227.466 117.065 231.004 133.224 230.532 133.224 230.532" stroke="#404040" stroke-width="2.35899" stroke-linecap="butt" stroke-linejoin="round" stroke-miterlimit="10" stroke-opacity="1" fill="#4CD3D6" fill-rule="nonzero" fill-opacity="1" transform="matrix(1 0 0 1.0014 849.155 295)"/><path d="M146.847 189.427C146.847 196.918 140.774 202.991 133.283 202.991 125.792 202.991 119.719 196.918 119.719 189.427 119.719 181.936 125.792 175.863 133.283 175.863 140.774 175.863 146.847 181.936 146.847 189.427Z" stroke="#404040" stroke-width="2.35899" stroke-linecap="butt" stroke-linejoin="round" stroke-miterlimit="10" stroke-opacity="1" fill="#4CD3D6" fill-rule="nonzero" fill-opacity="1" transform="matrix(1 0 0 1.0014 849.155 295)"/><path d="M139.593 182.232C141.127 194.027 144.252 183.647 146.552 192.258 145.255 198.391 139.829 202.991 133.283 202.991 125.793 202.991 119.719 196.917 119.719 189.427 119.719 188.66 119.778 187.894 119.896 187.127 120.544 187.186 135.406 193.673 139.593 182.232Z" stroke="#404040" stroke-width="2.35899" stroke-linecap="butt" stroke-linejoin="miter" stroke-miterlimit="10" stroke-opacity="1" fill="#FFFFFF" fill-rule="nonzero" fill-opacity="1" transform="matrix(1 0 0 1.0014 849.155 295)"/><path d="M140.714 201.399 140.714 207.65M126.206 207.65 126.206 201.576" stroke="#404040" stroke-width="2.35899" stroke-linecap="round" stroke-linejoin="round" stroke-miterlimit="10" stroke-opacity="1" fill="none" fill-rule="nonzero" transform="matrix(1 0 0 1.0014 849.155 295)"/><path d="M225.696 205.055C227.525 209.066 231.535 211.66 235.899 211.66 240.322 211.66 244.333 209.066 246.161 204.996" stroke="#404040" stroke-width="2.35899" stroke-linecap="round" stroke-linejoin="round" stroke-miterlimit="10" stroke-opacity="1" fill="#FFFFFF" fill-rule="nonzero" fill-opacity="1" transform="matrix(1 0 0 1.0014 849.155 295)"/><path d="M235.958 231.181C235.958 231.181 252.117 231.653 258.192 228.114 268.217 222.276 258.015 210.304 250.112 208.299 247.694 212.84 242.268 215.966 235.958 215.966L236.135 215.966C229.825 215.966 224.458 212.781 221.981 208.299 214.078 210.304 203.876 222.335 213.902 228.114 219.976 231.653 236.135 231.181 236.135 231.181" stroke="#404040" stroke-width="2.35899" stroke-linecap="butt" stroke-linejoin="miter" stroke-miterlimit="10" stroke-opacity="1" fill="#B18BE8" fill-rule="nonzero" fill-opacity="1" transform="matrix(1 0 0 1.0014 849.155 295)"/><path d="M249.463 190.076C249.463 197.567 243.39 203.64 235.899 203.64 228.408 203.64 222.335 197.567 222.335 190.076 222.335 182.584 228.408 176.512 235.899 176.512 243.39 176.512 249.463 182.584 249.463 190.076Z" stroke="#404040" stroke-width="2.35899" stroke-linecap="butt" stroke-linejoin="miter" stroke-miterlimit="10" stroke-opacity="1" fill="#B18BE8" fill-rule="nonzero" fill-opacity="1" transform="matrix(1 0 0 1.0014 849.155 295)"/><path d="M241.856 177.868C237.904 188.012 230.414 178.163 222.63 192.907 223.927 199.04 229.353 203.64 235.899 203.64 243.389 203.64 249.463 197.566 249.463 190.076 249.463 189.25 242.917 186.537 241.856 177.868ZM243.33 201.399 243.33 208.24M228.822 208.24 228.822 201.576" stroke="#404040" stroke-width="2.35899" stroke-linecap="round" stroke-linejoin="round" stroke-miterlimit="10" stroke-opacity="1" fill="#FFFFFF" fill-rule="nonzero" fill-opacity="1" transform="matrix(1 0 0 1.0014 849.155 295)"/><path d="M222.335 190.371C222.335 190.371 222.335 196.622 225.048 198.922 222.925 199.924 218.207 198.391 218.855 197.919 221.509 196.032 222.335 190.371 222.335 190.371ZM249.463 190.076C249.463 190.076 249.345 196.622 246.633 198.922 248.756 199.924 253.474 198.391 252.825 197.919 250.171 196.032 249.463 190.076 249.463 190.076Z" stroke="#404040" stroke-width="2.35899" stroke-linecap="butt" stroke-linejoin="miter" stroke-miterlimit="10" stroke-opacity="1" fill="#B18BE8" fill-rule="nonzero" fill-opacity="1" transform="matrix(1 0 0 1.0014 849.155 295)"/><path d="M192.848 129.568C192.848 138.785 185.375 146.257 176.158 146.257 166.94 146.257 159.468 138.785 159.468 129.568 159.468 120.35 166.94 112.878 176.158 112.878 185.375 112.878 192.848 120.35 192.848 129.568Z" stroke="#404040" stroke-width="2.35899" stroke-linecap="butt" stroke-linejoin="miter" stroke-miterlimit="10" stroke-opacity="1" fill="#B18BE8" fill-rule="nonzero" fill-opacity="1" transform="matrix(1 0 0 1.0014 849.155 295)"/><path d="M176.158 131.337 176.158 122.727M173.15 124.024 176.158 120.957 179.224 124.024M171.617 128.388 169.258 128.388C168.727 128.388 168.255 128.86 168.255 129.391L168.255 134.404C168.255 134.934 168.727 135.406 169.258 135.406L182.999 135.406C183.53 135.406 184.001 134.934 184.001 134.404L184.001 129.391C184.001 128.86 183.53 128.388 182.999 128.388L180.699 128.388M139.534 158.819 133.165 165.247 126.737 158.819" stroke="#404040" stroke-width="2.35899" stroke-linecap="round" stroke-linejoin="round" stroke-miterlimit="10" stroke-opacity="1" fill="none" fill-rule="nonzero" transform="matrix(1 0 0 1.0014 849.155 295)"/></g></g></g></g></g></svg>