<svg width="666" height="182" xmlns="http://www.w3.org/2000/svg" xmlns:xlink="http://www.w3.org/1999/xlink" xml:space="preserve" overflow="hidden"><g transform="translate(-588 -30)"><g><g><g><g><path d="M124.168 120.826C124.168 107.461 154.563 96.6826 192.072 96.6826 229.581 96.6826 259.976 107.461 259.976 120.826M124.168 120.826 124.168 150.898C124.168 154.132 126 157.257 129.234 160.06 139.365 168.898 163.725 175.042 192.072 175.042 220.527 175.042 244.778 168.79 254.91 160.06 258.144 157.257 259.976 154.132 259.976 150.898L259.976 120.826" stroke="#404040" stroke-width="4.31138" stroke-linecap="butt" stroke-linejoin="miter" stroke-miterlimit="10" stroke-opacity="1" fill="#B18BE8" fill-rule="nonzero" fill-opacity="1" transform="matrix(1.00128 0 0 1 489.651 31)"/><path d="M259.976 120.826C259.976 134.192 229.581 144.97 192.072 144.97 154.563 144.97 124.168 134.192 124.168 120.826 124.168 107.461 154.563 96.6826 192.072 96.6826 229.581 96.6826 259.976 107.461 259.976 120.826Z" stroke="#6693ED" stroke-width="4.31138" stroke-linecap="butt" stroke-linejoin="miter" stroke-miterlimit="10" stroke-opacity="1" fill="#FFFFFF" fill-rule="nonzero" fill-opacity="1" transform="matrix(1.00128 0 0 1 489.651 31)"/><path d="M124.168 90.7545C124.168 77.3892 154.563 66.6108 192.072 66.6108 229.581 66.6108 259.976 77.3892 259.976 90.7545M124.168 90.7545 124.168 120.826C124.168 124.06 126 127.186 129.234 129.988 139.365 138.826 163.725 144.97 192.072 144.97 220.527 144.97 244.778 138.719 254.91 129.988 258.144 127.186 259.976 124.06 259.976 120.826L259.976 90.7545" stroke="#404040" stroke-width="4.31138" stroke-linecap="butt" stroke-linejoin="miter" stroke-miterlimit="10" stroke-opacity="1" fill="#B18BE8" fill-rule="nonzero" fill-opacity="1" transform="matrix(1.00128 0 0 1 489.651 31)"/><path d="M259.976 90.7545C259.976 104.12 229.581 114.898 192.072 114.898 154.563 114.898 124.168 104.12 124.168 90.7545 124.168 77.3892 154.563 66.6108 192.072 66.6108 229.581 66.6108 259.976 77.3892 259.976 90.7545Z" stroke="#6693ED" stroke-width="4.31138" stroke-linecap="butt" stroke-linejoin="miter" stroke-miterlimit="10" stroke-opacity="1" fill="#FFFFFF" fill-rule="nonzero" fill-opacity="1" transform="matrix(1.00128 0 0 1 489.651 31)"/><path d="M124.168 60.6826C124.168 47.3174 154.563 36.5389 192.072 36.5389 229.581 36.5389 259.976 47.3174 259.976 60.6826M124.168 60.6826 124.168 90.7545C124.168 93.988 126 97.1138 129.234 99.9162 139.365 108.754 163.725 114.898 192.072 114.898 220.527 114.898 244.778 108.647 254.91 99.9162 258.144 97.1138 259.976 93.988 259.976 90.7545L259.976 60.6826" stroke="#404040" stroke-width="4.31138" stroke-linecap="butt" stroke-linejoin="miter" stroke-miterlimit="10" stroke-opacity="1" fill="#B18BE8" fill-rule="nonzero" fill-opacity="1" transform="matrix(1.00128 0 0 1 489.651 31)"/><path d="M259.976 60.6826C259.976 74.0479 229.581 84.8263 192.072 84.8263 154.563 84.8263 124.168 74.0479 124.168 60.6826 124.168 47.3174 154.563 36.5389 192.072 36.5389 229.581 36.5389 259.976 47.3174 259.976 60.6826Z" stroke="#6693ED" stroke-width="4.31138" stroke-linecap="butt" stroke-linejoin="miter" stroke-miterlimit="10" stroke-opacity="1" fill="#FFFFFF" fill-rule="nonzero" fill-opacity="1" transform="matrix(1.00128 0 0 1 489.651 31)"/><path d="M124.168 30.6108C124.168 17.2455 154.563 6.46707 192.072 6.46707 229.581 6.46707 259.976 17.2455 259.976 30.6108M124.168 30.6108 124.168 60.6826C124.168 63.9162 126 67.0419 129.234 69.8443 139.365 78.6826 163.725 84.8263 192.072 84.8263 220.527 84.8263 244.778 78.5749 254.91 69.8443 258.144 67.0419 259.976 63.9162 259.976 60.6826L259.976 30.6108" stroke="#404040" stroke-width="4.31138" stroke-linecap="butt" stroke-linejoin="miter" stroke-miterlimit="10" stroke-opacity="1" fill="#B18BE8" fill-rule="nonzero" fill-opacity="1" transform="matrix(1.00128 0 0 1 489.651 31)"/><path d="M259.976 30.6108C259.976 43.976 229.581 54.7545 192.072 54.7545 154.563 54.7545 124.168 43.976 124.168 30.6108 124.168 17.2455 154.563 6.46707 192.072 6.46707 229.581 6.46707 259.976 17.2455 259.976 30.6108Z" stroke="#404040" stroke-width="4.31138" stroke-linecap="butt" stroke-linejoin="miter" stroke-miterlimit="10" stroke-opacity="1" fill="#FFFFFF" fill-rule="nonzero" fill-opacity="1" transform="matrix(1.00128 0 0 1 489.651 31)"/><path d="M365.605 120.826C365.605 107.461 396 96.6826 433.509 96.6826 471.018 96.6826 501.413 107.461 501.413 120.826M365.605 120.826 365.605 150.898C365.605 154.132 367.437 157.257 370.671 160.06 380.802 168.898 405.162 175.042 433.509 175.042 461.964 175.042 486.216 168.79 496.347 160.06 499.581 157.257 501.413 154.132 501.413 150.898L501.413 120.826" stroke="#404040" stroke-width="4.31138" stroke-linecap="butt" stroke-linejoin="miter" stroke-miterlimit="10" stroke-opacity="1" fill="#B3E3FF" fill-rule="nonzero" fill-opacity="1" transform="matrix(1.00128 0 0 1 489.651 31)"/><path d="M501.413 120.826C501.413 134.192 471.018 144.97 433.509 144.97 396 144.97 365.605 134.192 365.605 120.826 365.605 107.461 396 96.6826 433.509 96.6826 471.018 96.6826 501.413 107.461 501.413 120.826Z" stroke="#6693ED" stroke-width="4.31138" stroke-linecap="butt" stroke-linejoin="miter" stroke-miterlimit="10" stroke-opacity="1" fill="#FFFFFF" fill-rule="nonzero" fill-opacity="1" transform="matrix(1.00128 0 0 1 489.651 31)"/><path d="M365.605 90.7545C365.605 77.3892 396 66.6108 433.509 66.6108 471.018 66.6108 501.413 77.3892 501.413 90.7545M365.605 90.7545 365.605 120.826C365.605 124.06 367.437 127.186 370.671 129.988 380.802 138.826 405.162 144.97 433.509 144.97 461.964 144.97 486.216 138.719 496.347 129.988 499.581 127.186 501.413 124.06 501.413 120.826L501.413 90.7545" stroke="#404040" stroke-width="4.31138" stroke-linecap="butt" stroke-linejoin="miter" stroke-miterlimit="10" stroke-opacity="1" fill="#B3E3FF" fill-rule="nonzero" fill-opacity="1" transform="matrix(1.00128 0 0 1 489.651 31)"/><path d="M501.413 90.7545C501.413 104.12 471.018 114.898 433.509 114.898 396 114.898 365.605 104.12 365.605 90.7545 365.605 77.3892 396 66.6108 433.509 66.6108 471.018 66.6108 501.413 77.3892 501.413 90.7545Z" stroke="#6693ED" stroke-width="4.31138" stroke-linecap="butt" stroke-linejoin="miter" stroke-miterlimit="10" stroke-opacity="1" fill="#FFFFFF" fill-rule="nonzero" fill-opacity="1" transform="matrix(1.00128 0 0 1 489.651 31)"/><path d="M365.605 60.6826C365.605 47.3174 396 36.5389 433.509 36.5389 471.018 36.5389 501.413 47.3174 501.413 60.6826M365.605 60.6826 365.605 90.7545C365.605 93.988 367.437 97.1138 370.671 99.9162 380.802 108.754 405.162 114.898 433.509 114.898 461.964 114.898 486.216 108.647 496.347 99.9162 499.581 97.1138 501.413 93.988 501.413 90.7545L501.413 60.6826" stroke="#404040" stroke-width="4.31138" stroke-linecap="butt" stroke-linejoin="miter" stroke-miterlimit="10" stroke-opacity="1" fill="#B3E3FF" fill-rule="nonzero" fill-opacity="1" transform="matrix(1.00128 0 0 1 489.651 31)"/><path d="M501.413 60.6826C501.413 74.0479 471.018 84.8263 433.509 84.8263 396 84.8263 365.605 74.0479 365.605 60.6826 365.605 47.3174 396 36.5389 433.509 36.5389 471.018 36.5389 501.413 47.3174 501.413 60.6826Z" stroke="#6693ED" stroke-width="4.31138" stroke-linecap="butt" stroke-linejoin="miter" stroke-miterlimit="10" stroke-opacity="1" fill="#FFFFFF" fill-rule="nonzero" fill-opacity="1" transform="matrix(1.00128 0 0 1 489.651 31)"/><path d="M365.605 30.6108C365.605 17.2455 396 6.46707 433.509 6.46707 471.018 6.46707 501.413 17.2455 501.413 30.6108M365.605 30.6108 365.605 60.6826C365.605 63.9162 367.437 67.0419 370.671 69.8443 380.802 78.6826 405.162 84.8263 433.509 84.8263 461.964 84.8263 486.216 78.5749 496.347 69.8443 499.581 67.0419 501.413 63.9162 501.413 60.6826L501.413 30.6108" stroke="#404040" stroke-width="4.31138" stroke-linecap="butt" stroke-linejoin="miter" stroke-miterlimit="10" stroke-opacity="1" fill="#B3E3FF" fill-rule="nonzero" fill-opacity="1" transform="matrix(1.00128 0 0 1 489.651 31)"/><path d="M501.413 30.6108C501.413 43.976 471.018 54.7545 433.509 54.7545 396 54.7545 365.605 43.976 365.605 30.6108 365.605 17.2455 396 6.46707 433.509 6.46707 471.018 6.46707 501.413 17.2455 501.413 30.6108Z" stroke="#404040" stroke-width="4.31138" stroke-linecap="butt" stroke-linejoin="miter" stroke-miterlimit="10" stroke-opacity="1" fill="#FFFFFF" fill-rule="nonzero" fill-opacity="1" transform="matrix(1.00128 0 0 1 489.651 31)"/><path d="M606.611 120.826C606.611 107.461 637.006 96.6826 674.515 96.6826 712.024 96.6826 742.419 107.461 742.419 120.826M606.611 120.826 606.611 150.898C606.611 154.132 608.443 157.257 611.677 160.06 621.808 168.898 646.168 175.042 674.515 175.042 702.97 175.042 727.222 168.79 737.353 160.06 740.587 157.257 742.419 154.132 742.419 150.898L742.419 120.826" stroke="#404040" stroke-width="4.31138" stroke-linecap="butt" stroke-linejoin="miter" stroke-miterlimit="10" stroke-opacity="1" fill="#4ED1A1" fill-rule="nonzero" fill-opacity="1" transform="matrix(1.00128 0 0 1 489.651 31)"/><path d="M742.419 120.826C742.419 134.192 712.024 144.97 674.515 144.97 637.006 144.97 606.611 134.192 606.611 120.826 606.611 107.461 637.006 96.6826 674.515 96.6826 712.024 96.6826 742.419 107.461 742.419 120.826Z" stroke="#6693ED" stroke-width="4.31138" stroke-linecap="butt" stroke-linejoin="miter" stroke-miterlimit="10" stroke-opacity="1" fill="#FFFFFF" fill-rule="nonzero" fill-opacity="1" transform="matrix(1.00128 0 0 1 489.651 31)"/><path d="M606.611 90.7545C606.611 77.3892 637.006 66.6108 674.515 66.6108 712.024 66.6108 742.419 77.3892 742.419 90.7545M606.611 90.7545 606.611 120.826C606.611 124.06 608.443 127.186 611.677 129.988 621.808 138.826 646.168 144.97 674.515 144.97 702.97 144.97 727.222 138.719 737.353 129.988 740.587 127.186 742.419 124.06 742.419 120.826L742.419 90.7545" stroke="#404040" stroke-width="4.31138" stroke-linecap="butt" stroke-linejoin="miter" stroke-miterlimit="10" stroke-opacity="1" fill="#4ED1A1" fill-rule="nonzero" fill-opacity="1" transform="matrix(1.00128 0 0 1 489.651 31)"/><path d="M742.419 90.7545C742.419 104.12 712.024 114.898 674.515 114.898 637.006 114.898 606.611 104.12 606.611 90.7545 606.611 77.3892 637.006 66.6108 674.515 66.6108 712.024 66.6108 742.419 77.3892 742.419 90.7545Z" stroke="#6693ED" stroke-width="4.31138" stroke-linecap="butt" stroke-linejoin="miter" stroke-miterlimit="10" stroke-opacity="1" fill="#FFFFFF" fill-rule="nonzero" fill-opacity="1" transform="matrix(1.00128 0 0 1 489.651 31)"/><path d="M606.611 60.6826C606.611 47.3174 637.006 36.5389 674.515 36.5389 712.024 36.5389 742.419 47.3174 742.419 60.6826M606.611 60.6826 606.611 90.7545C606.611 93.988 608.443 97.1138 611.677 99.9162 621.808 108.754 646.168 114.898 674.515 114.898 702.97 114.898 727.222 108.647 737.353 99.9162 740.587 97.1138 742.419 93.988 742.419 90.7545L742.419 60.6826" stroke="#404040" stroke-width="4.31138" stroke-linecap="butt" stroke-linejoin="miter" stroke-miterlimit="10" stroke-opacity="1" fill="#4ED1A1" fill-rule="nonzero" fill-opacity="1" transform="matrix(1.00128 0 0 1 489.651 31)"/><path d="M742.419 60.6826C742.419 74.0479 712.024 84.8263 674.515 84.8263 637.006 84.8263 606.611 74.0479 606.611 60.6826 606.611 47.3174 637.006 36.5389 674.515 36.5389 712.024 36.5389 742.419 47.3174 742.419 60.6826Z" stroke="#6693ED" stroke-width="4.31138" stroke-linecap="butt" stroke-linejoin="miter" stroke-miterlimit="10" stroke-opacity="1" fill="#FFFFFF" fill-rule="nonzero" fill-opacity="1" transform="matrix(1.00128 0 0 1 489.651 31)"/><path d="M606.611 30.6108C606.611 17.2455 637.006 6.46707 674.515 6.46707 712.024 6.46707 742.419 17.2455 742.419 30.6108M606.611 30.6108 606.611 60.6826C606.611 63.9162 608.443 67.0419 611.677 69.8443 621.808 78.6826 646.168 84.8263 674.515 84.8263 702.97 84.8263 727.222 78.5749 737.353 69.8443 740.587 67.0419 742.419 63.9162 742.419 60.6826L742.419 30.6108" stroke="#404040" stroke-width="4.31138" stroke-linecap="butt" stroke-linejoin="miter" stroke-miterlimit="10" stroke-opacity="1" fill="#4ED1A1" fill-rule="nonzero" fill-opacity="1" transform="matrix(1.00128 0 0 1 489.651 31)"/><path d="M742.419 30.6108C742.419 43.976 712.024 54.7545 674.515 54.7545 637.006 54.7545 606.611 43.976 606.611 30.6108 606.611 17.2455 637.006 6.46707 674.515 6.46707 712.024 6.46707 742.419 17.2455 742.419 30.6108Z" stroke="#404040" stroke-width="4.31138" stroke-linecap="butt" stroke-linejoin="miter" stroke-miterlimit="10" stroke-opacity="1" fill="#FFFFFF" fill-rule="nonzero" fill-opacity="1" transform="matrix(1.00128 0 0 1 489.651 31)"/><path d="M338.12 96.6826 288.323 96.6826M297.808 108.431 286.06 96.6826 297.808 85.0419M328.419 85.0419 340.168 96.6826 328.419 108.431M578.802 96.6826 529.114 96.6826M538.491 108.431 526.85 96.6826 538.491 85.0419M569.102 85.0419 580.85 96.6826 569.102 108.431" stroke="#404040" stroke-width="4.31138" stroke-linecap="round" stroke-linejoin="round" stroke-miterlimit="10" stroke-opacity="1" fill="none" fill-rule="nonzero" transform="matrix(1.00128 0 0 1 489.651 31)"/></g></g></g></g></g></svg>