<svg width="532" height="449" xmlns="http://www.w3.org/2000/svg" xmlns:xlink="http://www.w3.org/1999/xlink" xml:space="preserve" overflow="hidden"><g transform="translate(-672 -192)"><g><g><g><path d="M273.381 244.849 391.935 244.849C404.764 244.849 415.159 234.453 415.159 221.625L415.159 178.605" stroke="#404040" stroke-width="4.42365" stroke-linecap="butt" stroke-linejoin="miter" stroke-miterlimit="10" stroke-opacity="1" fill="none" fill-rule="nonzero" transform="matrix(1.00031 0 0 1 492.469 192)"/><path d="M442.807 178.605 442.807 308.77" stroke="#404040" stroke-width="4.42365" stroke-linecap="round" stroke-linejoin="round" stroke-miterlimit="10" stroke-opacity="1" fill="none" fill-rule="nonzero" transform="matrix(1.00031 0 0 1 492.469 192)"/><path d="M612.232 244.849 493.679 244.849C480.85 244.849 470.455 234.453 470.455 221.625L470.455 178.605" stroke="#404040" stroke-width="4.42365" stroke-linecap="butt" stroke-linejoin="miter" stroke-miterlimit="10" stroke-opacity="1" fill="none" fill-rule="nonzero" transform="matrix(1.00031 0 0 1 492.469 192)"/><path d="M273.381 244.849C260.553 244.849 250.157 255.244 250.157 268.073L250.157 308.881M612.232 244.849C625.061 244.849 635.457 255.244 635.457 268.073L635.457 308.881" stroke="#404040" stroke-width="4.42365" stroke-linecap="round" stroke-linejoin="round" stroke-miterlimit="10" stroke-opacity="1" fill="none" fill-rule="nonzero" transform="matrix(1.00031 0 0 1 492.469 192)"/><path d="M373.466 126.737C373.466 113.024 404.653 101.965 443.139 101.965 481.624 101.965 512.811 113.024 512.811 126.737M373.466 126.737 373.466 157.592C373.466 160.91 375.346 164.117 378.664 166.993 389.06 176.061 414.053 182.365 443.139 182.365 472.335 182.365 497.218 175.951 507.613 166.993 510.931 164.117 512.811 160.91 512.811 157.592L512.811 126.737" stroke="#404040" stroke-width="4.42365" stroke-linecap="butt" stroke-linejoin="miter" stroke-miterlimit="10" stroke-opacity="1" fill="#B3E3FF" fill-rule="nonzero" fill-opacity="1" transform="matrix(1.00031 0 0 1 492.469 192)"/><path d="M512.811 126.737C512.811 140.451 481.624 151.51 443.139 151.51 404.653 151.51 373.466 140.451 373.466 126.737 373.466 113.024 404.653 101.965 443.139 101.965 481.624 101.965 512.811 113.024 512.811 126.737Z" stroke="#404040" stroke-width="4.42365" stroke-linecap="butt" stroke-linejoin="miter" stroke-miterlimit="10" stroke-opacity="1" fill="#FFFFFF" fill-rule="nonzero" fill-opacity="1" transform="matrix(1.00031 0 0 1 492.469 192)"/><path d="M373.466 95.8825C373.466 82.1692 404.653 71.1101 443.139 71.1101 481.624 71.1101 512.811 82.1692 512.811 95.8825M373.466 95.8825 373.466 126.737C373.466 130.055 375.346 133.262 378.664 136.138 389.06 145.206 414.053 151.51 443.139 151.51 472.335 151.51 497.218 145.096 507.613 136.138 510.931 133.262 512.811 130.055 512.811 126.737L512.811 95.8825" stroke="#404040" stroke-width="4.42365" stroke-linecap="butt" stroke-linejoin="miter" stroke-miterlimit="10" stroke-opacity="1" fill="#B3E3FF" fill-rule="nonzero" fill-opacity="1" transform="matrix(1.00031 0 0 1 492.469 192)"/><path d="M512.811 95.8825C512.811 109.596 481.624 120.655 443.139 120.655 404.653 120.655 373.466 109.596 373.466 95.8825 373.466 82.1692 404.653 71.1101 443.139 71.1101 481.624 71.1101 512.811 82.1692 512.811 95.8825Z" stroke="#404040" stroke-width="4.42365" stroke-linecap="butt" stroke-linejoin="miter" stroke-miterlimit="10" stroke-opacity="1" fill="#FFFFFF" fill-rule="nonzero" fill-opacity="1" transform="matrix(1.00031 0 0 1 492.469 192)"/><path d="M373.466 65.0276C373.466 51.3143 404.653 40.2552 443.139 40.2552 481.624 40.2552 512.811 51.3143 512.811 65.0276M373.466 65.0276 373.466 95.8825C373.466 99.2002 375.346 102.407 378.664 105.283 389.06 114.351 414.053 120.655 443.139 120.655 472.335 120.655 497.218 114.241 507.613 105.283 510.931 102.407 512.811 99.2002 512.811 95.8825L512.811 65.0276" stroke="#404040" stroke-width="4.42365" stroke-linecap="butt" stroke-linejoin="miter" stroke-miterlimit="10" stroke-opacity="1" fill="#B3E3FF" fill-rule="nonzero" fill-opacity="1" transform="matrix(1.00031 0 0 1 492.469 192)"/><path d="M512.811 65.0276C512.811 78.7409 481.624 89.8 443.139 89.8 404.653 89.8 373.466 78.7409 373.466 65.0276 373.466 51.3143 404.653 40.2552 443.139 40.2552 481.624 40.2552 512.811 51.3143 512.811 65.0276Z" stroke="#404040" stroke-width="4.42365" stroke-linecap="butt" stroke-linejoin="miter" stroke-miterlimit="10" stroke-opacity="1" fill="#FFFFFF" fill-rule="nonzero" fill-opacity="1" transform="matrix(1.00031 0 0 1 492.469 192)"/><path d="M373.466 34.1727C373.466 20.4594 404.653 9.40025 443.139 9.40025 481.624 9.40025 512.811 20.4594 512.811 34.1727M373.466 34.1727 373.466 65.0276C373.466 68.3453 375.346 71.5525 378.664 74.4278 389.06 83.4963 414.053 89.8 443.139 89.8 472.335 89.8 497.218 83.3857 507.613 74.4278 510.931 71.5525 512.811 68.3453 512.811 65.0276L512.811 34.1727" stroke="#404040" stroke-width="4.42365" stroke-linecap="butt" stroke-linejoin="miter" stroke-miterlimit="10" stroke-opacity="1" fill="#B3E3FF" fill-rule="nonzero" fill-opacity="1" transform="matrix(1.00031 0 0 1 492.469 192)"/><path d="M512.811 34.1727C512.811 47.886 481.624 58.9451 443.139 58.9451 404.653 58.9451 373.466 47.886 373.466 34.1727 373.466 20.4594 404.653 9.40025 443.139 9.40025 481.624 9.40025 512.811 20.4594 512.811 34.1727Z" stroke="#404040" stroke-width="4.42365" stroke-linecap="butt" stroke-linejoin="miter" stroke-miterlimit="10" stroke-opacity="1" fill="#FFFFFF" fill-rule="nonzero" fill-opacity="1" transform="matrix(1.00031 0 0 1 492.469 192)"/><path d="M616.214 385.521C619.642 393.041 627.162 397.907 635.346 397.907 643.64 397.907 651.161 393.041 654.589 385.41" stroke="#404040" stroke-width="4.42365" stroke-linecap="round" stroke-linejoin="round" stroke-miterlimit="10" stroke-opacity="1" fill="none" fill-rule="nonzero" transform="matrix(1.00031 0 0 1 492.469 192)"/><path d="M634.904 434.402C634.904 434.402 665.206 435.287 676.597 428.651 695.397 417.703 676.265 395.253 661.446 391.493 656.911 400.008 646.737 405.869 634.904 405.869L635.236 405.869C623.402 405.869 613.338 399.898 608.694 391.493 593.874 395.253 574.742 417.813 593.543 428.651 604.934 435.287 635.236 434.402 635.236 434.402" stroke="#404040" stroke-width="4.42365" stroke-linecap="butt" stroke-linejoin="miter" stroke-miterlimit="10" stroke-opacity="1" fill="#4ED1A1" fill-rule="nonzero" fill-opacity="1" transform="matrix(1.00031 0 0 1 492.469 192)"/><path d="M660.782 357.32C660.782 371.368 649.394 382.756 635.346 382.756 621.298 382.756 609.91 371.368 609.91 357.32 609.91 343.272 621.298 331.884 635.346 331.884 649.394 331.884 660.782 343.272 660.782 357.32Z" stroke="#404040" stroke-width="4.42365" stroke-linecap="butt" stroke-linejoin="miter" stroke-miterlimit="10" stroke-opacity="1" fill="#4ED1A1" fill-rule="nonzero" fill-opacity="1" transform="matrix(1.00031 0 0 1 492.469 192)"/><path d="M618.094 338.63C620.969 360.748 655.805 346.593 660.119 362.739 657.685 374.24 647.511 382.867 635.236 382.867 621.19 382.867 609.8 371.476 609.8 357.431 609.8 355.993 609.91 354.555 610.131 353.117 611.458 353.117 619.089 357.32 618.094 338.63Z" stroke="#404040" stroke-width="4.42365" stroke-linecap="butt" stroke-linejoin="miter" stroke-miterlimit="10" stroke-opacity="1" fill="#FFFFFF" fill-rule="nonzero" fill-opacity="1" transform="matrix(1.00031 0 0 1 492.469 192)"/><path d="M649.17 379.77 649.17 391.493M621.965 391.493 621.965 380.102M230.804 383.198C234.232 390.718 241.752 395.585 249.936 395.585 258.23 395.585 265.751 390.718 269.179 383.088" stroke="#404040" stroke-width="4.42365" stroke-linecap="round" stroke-linejoin="round" stroke-miterlimit="10" stroke-opacity="1" fill="none" fill-rule="nonzero" transform="matrix(1.00031 0 0 1 492.469 192)"/><path d="M249.494 432.19C249.494 432.19 279.796 433.075 291.186 426.439 309.987 415.491 290.855 393.041 276.035 389.281 271.501 397.796 261.327 403.658 249.494 403.658L249.825 403.658C237.992 403.658 227.928 397.686 223.283 389.281 208.464 393.041 189.332 415.601 208.133 426.439 219.523 433.075 249.825 432.19 249.825 432.19" stroke="#404040" stroke-width="4.42365" stroke-linecap="butt" stroke-linejoin="round" stroke-miterlimit="10" stroke-opacity="1" fill="#4CD3D6" fill-rule="nonzero" fill-opacity="1" transform="matrix(1.00031 0 0 1 492.469 192)"/><path d="M275.372 355.108C275.372 369.156 263.984 380.544 249.936 380.544 235.888 380.544 224.5 369.156 224.5 355.108 224.5 341.06 235.888 329.672 249.936 329.672 263.984 329.672 275.372 341.06 275.372 355.108Z" stroke="#404040" stroke-width="4.42365" stroke-linecap="butt" stroke-linejoin="round" stroke-miterlimit="10" stroke-opacity="1" fill="#4CD3D6" fill-rule="nonzero" fill-opacity="1" transform="matrix(1.00031 0 0 1 492.469 192)"/><path d="M261.769 341.616C264.645 363.734 270.506 344.27 274.819 360.417 272.386 371.918 262.212 380.544 249.936 380.544 235.891 380.544 224.5 369.153 224.5 355.108 224.5 353.67 224.611 352.233 224.832 350.795 226.048 350.906 253.917 363.071 261.769 341.616Z" stroke="#404040" stroke-width="4.42365" stroke-linecap="butt" stroke-linejoin="miter" stroke-miterlimit="10" stroke-opacity="1" fill="#FFFFFF" fill-rule="nonzero" fill-opacity="1" transform="matrix(1.00031 0 0 1 492.469 192)"/><path d="M263.87 377.558 263.87 389.17M236.665 389.281 236.665 377.89" stroke="#404040" stroke-width="4.42365" stroke-linecap="round" stroke-linejoin="round" stroke-miterlimit="10" stroke-opacity="1" fill="none" fill-rule="nonzero" transform="matrix(1.00031 0 0 1 492.469 192)"/><path d="M423.232 384.415C426.661 391.935 434.181 396.801 442.365 396.801 450.659 396.801 458.179 391.935 461.607 384.304" stroke="#404040" stroke-width="4.42365" stroke-linecap="round" stroke-linejoin="round" stroke-miterlimit="10" stroke-opacity="1" fill="#FFFFFF" fill-rule="nonzero" fill-opacity="1" transform="matrix(1.00031 0 0 1 492.469 192)"/><path d="M442.475 433.296C442.475 433.296 472.777 434.181 484.168 427.545 502.968 416.597 483.836 394.147 469.017 390.387 464.483 398.902 454.308 404.764 442.475 404.764L442.807 404.764C430.974 404.764 420.91 398.792 416.265 390.387 401.446 394.147 382.314 416.707 401.114 427.545 412.505 434.181 442.807 433.296 442.807 433.296" stroke="#404040" stroke-width="4.42365" stroke-linecap="butt" stroke-linejoin="miter" stroke-miterlimit="10" stroke-opacity="1" fill="#B18BE8" fill-rule="nonzero" fill-opacity="1" transform="matrix(1.00031 0 0 1 492.469 192)"/><path d="M467.801 356.214C467.801 370.262 456.412 381.65 442.365 381.65 428.317 381.65 416.929 370.262 416.929 356.214 416.929 342.166 428.317 330.778 442.365 330.778 456.412 330.778 467.801 342.166 467.801 356.214Z" stroke="#404040" stroke-width="4.42365" stroke-linecap="butt" stroke-linejoin="miter" stroke-miterlimit="10" stroke-opacity="1" fill="#B18BE8" fill-rule="nonzero" fill-opacity="1" transform="matrix(1.00031 0 0 1 492.469 192)"/><path d="M453.534 333.322C446.125 352.343 432.08 333.875 417.482 361.522 419.915 373.024 430.089 381.65 442.365 381.65 456.41 381.65 467.801 370.259 467.801 356.214 467.801 354.776 455.525 349.689 453.534 333.322ZM456.299 377.558 456.299 390.387M429.094 390.387 429.094 377.89" stroke="#404040" stroke-width="4.42365" stroke-linecap="round" stroke-linejoin="round" stroke-miterlimit="10" stroke-opacity="1" fill="#FFFFFF" fill-rule="nonzero" fill-opacity="1" transform="matrix(1.00031 0 0 1 492.469 192)"/><path d="M416.929 356.767C416.929 356.767 416.929 368.49 422.016 372.803 418.034 374.683 409.187 371.807 410.404 370.923 415.38 367.494 416.929 356.767 416.929 356.767ZM467.801 356.214C467.801 356.214 467.579 368.49 462.492 372.803 466.473 374.683 475.321 371.807 474.104 370.923 469.128 367.494 467.801 356.214 467.801 356.214Z" stroke="#404040" stroke-width="4.42365" stroke-linecap="butt" stroke-linejoin="miter" stroke-miterlimit="10" stroke-opacity="1" fill="#B18BE8" fill-rule="nonzero" fill-opacity="1" transform="matrix(1.00031 0 0 1 492.469 192)"/></g></g></g></g></svg>